<mxfile host="app.diagrams.net" modified="2021-03-25T20:47:00.994Z" agent="5.0 (Windows NT 10.0; Win64; x64) AppleWebKit/537.36 (KHTML, like Gecko) Chrome/89.0.4389.90 Safari/537.36" etag="t4G4vMm14pGS6aO1_fEF" version="14.5.1" type="github">
  <diagram id="JIP-OBKYLUgs_Pj7sQkm" name="Page-1">
    <mxGraphModel dx="1483" dy="1952" grid="1" gridSize="10" guides="1" tooltips="1" connect="1" arrows="1" fold="1" page="1" pageScale="1" pageWidth="827" pageHeight="1169" math="0" shadow="0">
      <root>
        <mxCell id="0" />
        <mxCell id="1" parent="0" />
        <mxCell id="5YmOeJlBWzoPnD8lbx6a-1" value="Emplacement" style="swimlane;fontStyle=0;childLayout=stackLayout;horizontal=1;startSize=26;fillColor=#e1d5e7;horizontalStack=0;resizeParent=1;resizeParentMax=0;resizeLast=0;collapsible=1;marginBottom=0;strokeColor=#9673a6;" vertex="1" parent="1">
          <mxGeometry x="660" y="112" width="140" height="52" as="geometry" />
        </mxCell>
        <mxCell id="5YmOeJlBWzoPnD8lbx6a-2" value="id: integer {id}" style="text;strokeColor=none;fillColor=none;align=left;verticalAlign=top;spacingLeft=4;spacingRight=4;overflow=hidden;rotatable=0;points=[[0,0.5],[1,0.5]];portConstraint=eastwest;" vertex="1" parent="5YmOeJlBWzoPnD8lbx6a-1">
          <mxGeometry y="26" width="140" height="26" as="geometry" />
        </mxCell>
        <mxCell id="5YmOeJlBWzoPnD8lbx6a-5" value="TypeEmplacement" style="swimlane;fontStyle=0;childLayout=stackLayout;horizontal=1;startSize=26;fillColor=#fff2cc;horizontalStack=0;resizeParent=1;resizeParentMax=0;resizeLast=0;collapsible=1;marginBottom=0;strokeColor=#d6b656;" vertex="1" parent="1">
          <mxGeometry x="340" y="86" width="196" height="104" as="geometry" />
        </mxCell>
        <mxCell id="5YmOeJlBWzoPnD8lbx6a-6" value="longueur_max: integer" style="text;strokeColor=none;fillColor=none;align=left;verticalAlign=top;spacingLeft=4;spacingRight=4;overflow=hidden;rotatable=0;points=[[0,0.5],[1,0.5]];portConstraint=eastwest;" vertex="1" parent="5YmOeJlBWzoPnD8lbx6a-5">
          <mxGeometry y="26" width="196" height="26" as="geometry" />
        </mxCell>
        <mxCell id="5YmOeJlBWzoPnD8lbx6a-7" value="prix: integer" style="text;strokeColor=none;fillColor=none;align=left;verticalAlign=top;spacingLeft=4;spacingRight=4;overflow=hidden;rotatable=0;points=[[0,0.5],[1,0.5]];portConstraint=eastwest;" vertex="1" parent="5YmOeJlBWzoPnD8lbx6a-5">
          <mxGeometry y="52" width="196" height="26" as="geometry" />
        </mxCell>
        <mxCell id="5YmOeJlBWzoPnD8lbx6a-8" value="type: vesselType" style="text;strokeColor=none;fillColor=none;align=left;verticalAlign=top;spacingLeft=4;spacingRight=4;overflow=hidden;rotatable=0;points=[[0,0.5],[1,0.5]];portConstraint=eastwest;" vertex="1" parent="5YmOeJlBWzoPnD8lbx6a-5">
          <mxGeometry y="78" width="196" height="26" as="geometry" />
        </mxCell>
        <mxCell id="5YmOeJlBWzoPnD8lbx6a-9" value="&lt;&lt;enumeration&gt;&gt;&#xa;vesselType" style="swimlane;fontStyle=0;childLayout=stackLayout;horizontal=1;startSize=30;fillColor=#f9f7ed;horizontalStack=0;resizeParent=1;resizeParentMax=0;resizeLast=0;collapsible=1;marginBottom=0;strokeColor=#36393d;" vertex="1" parent="1">
          <mxGeometry x="368" y="300" width="140" height="108" as="geometry" />
        </mxCell>
        <mxCell id="5YmOeJlBWzoPnD8lbx6a-10" value="petit" style="text;strokeColor=none;fillColor=none;align=left;verticalAlign=top;spacingLeft=4;spacingRight=4;overflow=hidden;rotatable=0;points=[[0,0.5],[1,0.5]];portConstraint=eastwest;" vertex="1" parent="5YmOeJlBWzoPnD8lbx6a-9">
          <mxGeometry y="30" width="140" height="26" as="geometry" />
        </mxCell>
        <mxCell id="5YmOeJlBWzoPnD8lbx6a-11" value="moyen" style="text;strokeColor=none;fillColor=none;align=left;verticalAlign=top;spacingLeft=4;spacingRight=4;overflow=hidden;rotatable=0;points=[[0,0.5],[1,0.5]];portConstraint=eastwest;" vertex="1" parent="5YmOeJlBWzoPnD8lbx6a-9">
          <mxGeometry y="56" width="140" height="26" as="geometry" />
        </mxCell>
        <mxCell id="5YmOeJlBWzoPnD8lbx6a-12" value="grand" style="text;strokeColor=none;fillColor=none;align=left;verticalAlign=top;spacingLeft=4;spacingRight=4;overflow=hidden;rotatable=0;points=[[0,0.5],[1,0.5]];portConstraint=eastwest;" vertex="1" parent="5YmOeJlBWzoPnD8lbx6a-9">
          <mxGeometry y="82" width="140" height="26" as="geometry" />
        </mxCell>
        <mxCell id="5YmOeJlBWzoPnD8lbx6a-13" value="Adhérent" style="swimlane;fontStyle=0;childLayout=stackLayout;horizontal=1;startSize=26;fillColor=#f8cecc;horizontalStack=0;resizeParent=1;resizeParentMax=0;resizeLast=0;collapsible=1;marginBottom=0;strokeColor=#b85450;" vertex="1" parent="1">
          <mxGeometry x="40" y="340" width="160" height="130" as="geometry" />
        </mxCell>
        <mxCell id="5YmOeJlBWzoPnD8lbx6a-14" value="id: integer {id}" style="text;strokeColor=none;fillColor=none;align=left;verticalAlign=top;spacingLeft=4;spacingRight=4;overflow=hidden;rotatable=0;points=[[0,0.5],[1,0.5]];portConstraint=eastwest;" vertex="1" parent="5YmOeJlBWzoPnD8lbx6a-13">
          <mxGeometry y="26" width="160" height="26" as="geometry" />
        </mxCell>
        <mxCell id="5YmOeJlBWzoPnD8lbx6a-15" value="nom: string" style="text;strokeColor=none;fillColor=none;align=left;verticalAlign=top;spacingLeft=4;spacingRight=4;overflow=hidden;rotatable=0;points=[[0,0.5],[1,0.5]];portConstraint=eastwest;" vertex="1" parent="5YmOeJlBWzoPnD8lbx6a-13">
          <mxGeometry y="52" width="160" height="26" as="geometry" />
        </mxCell>
        <mxCell id="5YmOeJlBWzoPnD8lbx6a-16" value="prenom: string" style="text;strokeColor=none;fillColor=none;align=left;verticalAlign=top;spacingLeft=4;spacingRight=4;overflow=hidden;rotatable=0;points=[[0,0.5],[1,0.5]];portConstraint=eastwest;" vertex="1" parent="5YmOeJlBWzoPnD8lbx6a-13">
          <mxGeometry y="78" width="160" height="26" as="geometry" />
        </mxCell>
        <mxCell id="5YmOeJlBWzoPnD8lbx6a-17" value="date_naissance: integer" style="text;strokeColor=none;fillColor=none;align=left;verticalAlign=top;spacingLeft=4;spacingRight=4;overflow=hidden;rotatable=0;points=[[0,0.5],[1,0.5]];portConstraint=eastwest;" vertex="1" parent="5YmOeJlBWzoPnD8lbx6a-13">
          <mxGeometry y="104" width="160" height="26" as="geometry" />
        </mxCell>
        <mxCell id="5YmOeJlBWzoPnD8lbx6a-18" value="Bateau" style="swimlane;fontStyle=0;childLayout=stackLayout;horizontal=1;startSize=26;fillColor=#cce5ff;horizontalStack=0;resizeParent=1;resizeParentMax=0;resizeLast=0;collapsible=1;marginBottom=0;strokeColor=#36393d;" vertex="1" parent="1">
          <mxGeometry x="40" y="80" width="160" height="156" as="geometry" />
        </mxCell>
        <mxCell id="5YmOeJlBWzoPnD8lbx6a-19" value="id: integer {id}" style="text;strokeColor=none;fillColor=none;align=left;verticalAlign=top;spacingLeft=4;spacingRight=4;overflow=hidden;rotatable=0;points=[[0,0.5],[1,0.5]];portConstraint=eastwest;" vertex="1" parent="5YmOeJlBWzoPnD8lbx6a-18">
          <mxGeometry y="26" width="160" height="26" as="geometry" />
        </mxCell>
        <mxCell id="5YmOeJlBWzoPnD8lbx6a-20" value="longueur: integer" style="text;strokeColor=none;fillColor=none;align=left;verticalAlign=top;spacingLeft=4;spacingRight=4;overflow=hidden;rotatable=0;points=[[0,0.5],[1,0.5]];portConstraint=eastwest;" vertex="1" parent="5YmOeJlBWzoPnD8lbx6a-18">
          <mxGeometry y="52" width="160" height="26" as="geometry" />
        </mxCell>
        <mxCell id="5YmOeJlBWzoPnD8lbx6a-21" value="model: string" style="text;strokeColor=none;fillColor=none;align=left;verticalAlign=top;spacingLeft=4;spacingRight=4;overflow=hidden;rotatable=0;points=[[0,0.5],[1,0.5]];portConstraint=eastwest;" vertex="1" parent="5YmOeJlBWzoPnD8lbx6a-18">
          <mxGeometry y="78" width="160" height="26" as="geometry" />
        </mxCell>
        <mxCell id="5YmOeJlBWzoPnD8lbx6a-22" value="date_construction: int" style="text;strokeColor=none;fillColor=none;align=left;verticalAlign=top;spacingLeft=4;spacingRight=4;overflow=hidden;rotatable=0;points=[[0,0.5],[1,0.5]];portConstraint=eastwest;" vertex="1" parent="5YmOeJlBWzoPnD8lbx6a-18">
          <mxGeometry y="104" width="160" height="26" as="geometry" />
        </mxCell>
        <mxCell id="5YmOeJlBWzoPnD8lbx6a-23" value="nom_propriétaire: string" style="text;strokeColor=none;fillColor=none;align=left;verticalAlign=top;spacingLeft=4;spacingRight=4;overflow=hidden;rotatable=0;points=[[0,0.5],[1,0.5]];portConstraint=eastwest;" vertex="1" parent="5YmOeJlBWzoPnD8lbx6a-18">
          <mxGeometry y="130" width="160" height="26" as="geometry" />
        </mxCell>
        <mxCell id="5YmOeJlBWzoPnD8lbx6a-27" value="" style="endArrow=none;html=1;exitX=0.5;exitY=0;exitDx=0;exitDy=0;entryX=0.497;entryY=1.085;entryDx=0;entryDy=0;entryPerimeter=0;" edge="1" parent="1" source="5YmOeJlBWzoPnD8lbx6a-28" target="5YmOeJlBWzoPnD8lbx6a-23">
          <mxGeometry width="50" height="50" relative="1" as="geometry">
            <mxPoint x="410" y="290" as="sourcePoint" />
            <mxPoint x="460" y="240" as="targetPoint" />
          </mxGeometry>
        </mxCell>
        <mxCell id="5YmOeJlBWzoPnD8lbx6a-31" value="0..*" style="edgeLabel;html=1;align=center;verticalAlign=middle;resizable=0;points=[];" vertex="1" connectable="0" parent="5YmOeJlBWzoPnD8lbx6a-27">
          <mxGeometry x="0.6126" y="2" relative="1" as="geometry">
            <mxPoint as="offset" />
          </mxGeometry>
        </mxCell>
        <mxCell id="5YmOeJlBWzoPnD8lbx6a-28" value="possede" style="text;html=1;strokeColor=none;fillColor=none;align=center;verticalAlign=middle;whiteSpace=wrap;rounded=0;" vertex="1" parent="1">
          <mxGeometry x="100" y="280" width="40" height="20" as="geometry" />
        </mxCell>
        <mxCell id="5YmOeJlBWzoPnD8lbx6a-29" value="" style="endArrow=none;html=1;exitX=0.5;exitY=0;exitDx=0;exitDy=0;entryX=0.497;entryY=1.085;entryDx=0;entryDy=0;entryPerimeter=0;" edge="1" parent="1" source="5YmOeJlBWzoPnD8lbx6a-13" target="5YmOeJlBWzoPnD8lbx6a-28">
          <mxGeometry width="50" height="50" relative="1" as="geometry">
            <mxPoint x="120" y="340" as="sourcePoint" />
            <mxPoint x="119.51999999999998" y="238.21000000000004" as="targetPoint" />
          </mxGeometry>
        </mxCell>
        <mxCell id="5YmOeJlBWzoPnD8lbx6a-30" value="0..*" style="edgeLabel;html=1;align=center;verticalAlign=middle;resizable=0;points=[];" vertex="1" connectable="0" parent="5YmOeJlBWzoPnD8lbx6a-29">
          <mxGeometry x="-0.3858" relative="1" as="geometry">
            <mxPoint as="offset" />
          </mxGeometry>
        </mxCell>
        <mxCell id="5YmOeJlBWzoPnD8lbx6a-32" value="" style="endArrow=none;html=1;exitX=1.003;exitY=0.086;exitDx=0;exitDy=0;exitPerimeter=0;entryX=-0.006;entryY=0.855;entryDx=0;entryDy=0;entryPerimeter=0;" edge="1" parent="1" source="5YmOeJlBWzoPnD8lbx6a-21" target="5YmOeJlBWzoPnD8lbx6a-7">
          <mxGeometry width="50" height="50" relative="1" as="geometry">
            <mxPoint x="240" y="280" as="sourcePoint" />
            <mxPoint x="290" y="230" as="targetPoint" />
          </mxGeometry>
        </mxCell>
        <mxCell id="5YmOeJlBWzoPnD8lbx6a-34" value="correspond" style="edgeLabel;html=1;align=center;verticalAlign=middle;resizable=0;points=[];" vertex="1" connectable="0" parent="5YmOeJlBWzoPnD8lbx6a-32">
          <mxGeometry x="0.1302" y="1" relative="1" as="geometry">
            <mxPoint as="offset" />
          </mxGeometry>
        </mxCell>
        <mxCell id="5YmOeJlBWzoPnD8lbx6a-40" value="0..1" style="edgeLabel;html=1;align=center;verticalAlign=middle;resizable=0;points=[];" vertex="1" connectable="0" parent="5YmOeJlBWzoPnD8lbx6a-32">
          <mxGeometry x="-0.7949" relative="1" as="geometry">
            <mxPoint as="offset" />
          </mxGeometry>
        </mxCell>
        <mxCell id="5YmOeJlBWzoPnD8lbx6a-41" value="0..1" style="edgeLabel;html=1;align=center;verticalAlign=middle;resizable=0;points=[];" vertex="1" connectable="0" parent="5YmOeJlBWzoPnD8lbx6a-32">
          <mxGeometry x="0.8324" y="2" relative="1" as="geometry">
            <mxPoint as="offset" />
          </mxGeometry>
        </mxCell>
        <mxCell id="5YmOeJlBWzoPnD8lbx6a-36" value="" style="endArrow=none;html=1;entryX=1;entryY=0.5;entryDx=0;entryDy=0;exitX=0;exitY=0.5;exitDx=0;exitDy=0;" edge="1" parent="1" source="5YmOeJlBWzoPnD8lbx6a-37" target="5YmOeJlBWzoPnD8lbx6a-7">
          <mxGeometry width="50" height="50" relative="1" as="geometry">
            <mxPoint x="460" y="180" as="sourcePoint" />
            <mxPoint x="510" y="130" as="targetPoint" />
          </mxGeometry>
        </mxCell>
        <mxCell id="5YmOeJlBWzoPnD8lbx6a-43" value="1" style="edgeLabel;html=1;align=center;verticalAlign=middle;resizable=0;points=[];" vertex="1" connectable="0" parent="5YmOeJlBWzoPnD8lbx6a-36">
          <mxGeometry x="0.5156" y="-1" relative="1" as="geometry">
            <mxPoint as="offset" />
          </mxGeometry>
        </mxCell>
        <mxCell id="5YmOeJlBWzoPnD8lbx6a-37" value="garer" style="text;html=1;strokeColor=none;fillColor=none;align=center;verticalAlign=middle;whiteSpace=wrap;rounded=0;" vertex="1" parent="1">
          <mxGeometry x="580" y="141" width="40" height="20" as="geometry" />
        </mxCell>
        <mxCell id="5YmOeJlBWzoPnD8lbx6a-38" value="" style="endArrow=none;html=1;entryX=1;entryY=0.5;entryDx=0;entryDy=0;exitX=0;exitY=0.5;exitDx=0;exitDy=0;" edge="1" parent="1" source="5YmOeJlBWzoPnD8lbx6a-2" target="5YmOeJlBWzoPnD8lbx6a-37">
          <mxGeometry width="50" height="50" relative="1" as="geometry">
            <mxPoint x="620" y="151" as="sourcePoint" />
            <mxPoint x="536" y="151" as="targetPoint" />
          </mxGeometry>
        </mxCell>
        <mxCell id="5YmOeJlBWzoPnD8lbx6a-44" value="1" style="edgeLabel;html=1;align=center;verticalAlign=middle;resizable=0;points=[];" vertex="1" connectable="0" parent="5YmOeJlBWzoPnD8lbx6a-38">
          <mxGeometry x="-0.5043" y="-1" relative="1" as="geometry">
            <mxPoint as="offset" />
          </mxGeometry>
        </mxCell>
        <mxCell id="5YmOeJlBWzoPnD8lbx6a-39" value="" style="endArrow=none;dashed=1;html=1;dashPattern=1 3;strokeWidth=2;exitX=0.517;exitY=0.01;exitDx=0;exitDy=0;entryX=0.512;entryY=1.038;entryDx=0;entryDy=0;entryPerimeter=0;exitPerimeter=0;" edge="1" parent="1" source="5YmOeJlBWzoPnD8lbx6a-9" target="5YmOeJlBWzoPnD8lbx6a-8">
          <mxGeometry width="50" height="50" relative="1" as="geometry">
            <mxPoint x="350" y="270" as="sourcePoint" />
            <mxPoint x="438" y="260" as="targetPoint" />
          </mxGeometry>
        </mxCell>
        <mxCell id="5YmOeJlBWzoPnD8lbx6a-45" value="L&#39;emplacement doit être vide" style="text;html=1;align=center;verticalAlign=middle;resizable=0;points=[];autosize=1;fillColor=#f5f5f5;strokeColor=#666666;fontColor=#333333;" vertex="1" parent="1">
          <mxGeometry x="645" y="40" width="170" height="20" as="geometry" />
        </mxCell>
        <mxCell id="5YmOeJlBWzoPnD8lbx6a-47" value="Models" style="shape=folder;fontStyle=1;spacingTop=10;tabWidth=40;tabHeight=14;tabPosition=left;html=1;" vertex="1" parent="1">
          <mxGeometry x="40" y="-10" width="70" height="50" as="geometry" />
        </mxCell>
        <mxCell id="5YmOeJlBWzoPnD8lbx6a-49" value="" style="endArrow=none;dashed=1;html=1;dashPattern=1 3;strokeWidth=2;entryX=0.442;entryY=1.057;entryDx=0;entryDy=0;entryPerimeter=0;" edge="1" parent="1" target="5YmOeJlBWzoPnD8lbx6a-45">
          <mxGeometry width="50" height="50" relative="1" as="geometry">
            <mxPoint x="720" y="110" as="sourcePoint" />
            <mxPoint x="610" y="20" as="targetPoint" />
          </mxGeometry>
        </mxCell>
      </root>
    </mxGraphModel>
  </diagram>
</mxfile>
